<?xml version="1.0" standalone="no"?>
<!DOCTYPE svg PUBLIC "-//W3C//DTD SVG 20010904//EN"
 "http://www.w3.org/TR/2001/REC-SVG-20010904/DTD/svg10.dtd">
<svg version="1.0" xmlns="http://www.w3.org/2000/svg"
 width="64.000000pt" height="93.000000pt" viewBox="0 0 64.000000 93.000000"
 preserveAspectRatio="xMidYMid meet">
<metadata>
Created by potrace 1.10, written by Peter Selinger 2001-2011
</metadata>
<g transform="translate(0.000000,93.000000) scale(0.100000,-0.100000)"
fill="#000000" stroke="none">
<path d="M272 908 c-15 -15 -15 -51 0 -66 28 -28 78 -7 78 33 0 27 -18 45 -45
45 -12 0 -26 -5 -33 -12z"/>
<path d="M405 800 c3 -5 18 -10 31 -10 33 0 84 -51 84 -83 0 -70 -122 -179
-216 -193 -36 -5 -44 -10 -44 -28 0 -41 14 -50 56 -36 55 18 102 47 152 94
108 102 110 226 4 256 -47 13 -75 13 -67 0z"/>
<path d="M125 781 c-22 -10 -46 -25 -54 -34 -12 -16 -11 -16 25 -1 65 27 165
15 257 -30 41 -21 83 -46 93 -57 23 -26 30 -24 43 12 16 46 16 46 -36 73 -114
57 -250 73 -328 37z m292 -53 c7 -5 24 -11 38 -12 32 -4 34 -6 24 -31 -7 -18
-8 -18 -8 5 -1 17 -4 21 -9 12 -9 -14 -42 -6 -42 10 0 5 -5 6 -12 2 -7 -4 -8
-3 -4 4 4 7 1 12 -8 12 -8 0 -18 4 -21 10 -7 11 23 2 42 -12z"/>
<path d="M94 721 c-12 -5 -31 -22 -44 -38 -17 -22 -21 -37 -17 -71 7 -66 25
-75 23 -12 -1 46 2 55 26 73 60 45 181 14 261 -66 l45 -44 27 21 28 22 -39 33
c-68 55 -137 84 -217 88 -40 1 -82 -1 -93 -6z"/>
<path d="M570 675 c0 -82 -92 -191 -209 -247 -39 -18 -70 -38 -70 -44 -1 -6
10 -21 24 -34 l26 -24 37 19 c59 32 159 137 187 196 26 56 35 152 15 164 -6 4
-10 -8 -10 -30z"/>
<path d="M101 661 c-11 -7 -13 -26 -8 -82 9 -129 59 -232 135 -280 25 -16 50
-29 54 -29 16 0 7 18 -11 23 -28 7 -79 83 -97 145 -11 36 -15 82 -12 143 l3
89 -25 0 c-14 0 -31 -4 -39 -9z m36 -38 c0 -7 -3 -13 -7 -13 -4 0 -5 -12 -2
-27 2 -16 1 -24 -4 -20 -14 13 -14 74 0 74 7 0 13 -6 13 -14z"/>
<path d="M204 624 c-12 -65 1 -196 24 -240 50 -97 130 -122 190 -61 44 45 40
57 -5 17 -30 -27 -42 -31 -71 -26 -48 7 -61 22 -88 102 l-24 68 20 74 c11 41
19 76 18 77 -7 6 -47 25 -52 25 -3 0 -8 -16 -12 -36z"/>
<path d="M552 454 c-27 -18 -28 -45 -4 -67 25 -23 48 -21 66 5 20 29 20 34 -4
58 -24 24 -29 24 -58 4z"/>
<path d="M22 448 c-16 -16 -15 -53 3 -68 19 -16 45 -9 62 17 13 19 12 24 -6
42 -24 24 -42 26 -59 9z"/>
<path d="M108 70 c4 -81 22 -95 23 -17 l0 52 20 -52 c11 -29 24 -53 28 -53 5
0 18 24 29 53 l21 52 0 -52 c1 -78 19 -64 23 17 3 66 2 70 -18 70 -17 0 -24
-10 -34 -45 -7 -25 -16 -45 -20 -45 -4 0 -13 20 -20 45 -10 35 -17 45 -34 45
-20 0 -21 -4 -18 -70z"/>
<path d="M280 55 c0 -42 3 -55 15 -55 12 0 15 13 15 55 0 42 -3 55 -15 55 -12
0 -15 -13 -15 -55z"/>
<path d="M339 86 c-25 -53 25 -110 66 -76 19 16 19 30 0 30 -8 0 -15 -4 -15
-10 0 -5 -7 -10 -15 -10 -10 0 -15 11 -15 35 0 24 5 35 15 35 8 0 15 -4 15
-10 0 -5 7 -10 15 -10 18 0 19 12 3 28 -21 21 -57 14 -69 -12z"/>
<path d="M444 85 c-14 -21 -15 -31 -6 -51 15 -31 37 -40 68 -26 18 9 24 19 24
45 0 18 -5 38 -12 45 -20 20 -56 14 -74 -13z m51 -31 c0 -19 -5 -29 -15 -29
-16 0 -25 28 -16 51 10 25 31 10 31 -22z"/>
</g>
</svg>
